<mxfile host="app.diagrams.net" modified="2024-03-07T09:51:46.031Z" agent="Mozilla/5.0 (Windows NT 10.0; Win64; x64) AppleWebKit/537.36 (KHTML, like Gecko) Chrome/122.0.0.0 Safari/537.36" etag="Up57yz-RuF9_-ReUAXgl" version="24.0.2" type="device">
  <diagram name="第 1 页" id="5p2rj2__CdMukXTmmzm7">
    <mxGraphModel dx="2074" dy="1106" grid="1" gridSize="10" guides="1" tooltips="1" connect="1" arrows="1" fold="1" page="1" pageScale="1" pageWidth="827" pageHeight="1169" math="0" shadow="0">
      <root>
        <mxCell id="0" />
        <mxCell id="1" parent="0" />
        <mxCell id="3q75SMMaYMstoeI9ymJG-37" style="edgeStyle=orthogonalEdgeStyle;rounded=0;orthogonalLoop=1;jettySize=auto;html=1;entryX=0;entryY=0.5;entryDx=0;entryDy=0;" parent="1" source="tt5gq2Tumd6P4Rt2efla-69" target="tt5gq2Tumd6P4Rt2efla-75" edge="1">
          <mxGeometry relative="1" as="geometry">
            <Array as="points">
              <mxPoint x="910" y="1225" />
              <mxPoint x="910" y="1225" />
            </Array>
          </mxGeometry>
        </mxCell>
        <mxCell id="3q75SMMaYMstoeI9ymJG-39" value="message&lt;br&gt;by&lt;br&gt;offset" style="edgeLabel;html=1;align=center;verticalAlign=middle;resizable=0;points=[];" parent="3q75SMMaYMstoeI9ymJG-37" vertex="1" connectable="0">
          <mxGeometry x="-0.0151" relative="1" as="geometry">
            <mxPoint as="offset" />
          </mxGeometry>
        </mxCell>
        <mxCell id="tt5gq2Tumd6P4Rt2efla-69" value="&lt;span style=&quot;color: rgb(0, 0, 0); font-family: Helvetica; font-size: 12px; font-style: normal; font-variant-ligatures: normal; font-variant-caps: normal; letter-spacing: normal; orphans: 2; text-align: center; text-indent: 0px; text-transform: none; widows: 2; word-spacing: 0px; -webkit-text-stroke-width: 0px; text-decoration-thickness: initial; text-decoration-style: initial; text-decoration-color: initial; float: none; display: inline !important;&quot;&gt;&lt;b&gt;Kafka Server&lt;/b&gt;&lt;/span&gt;" style="rounded=0;html=1;dashed=1;fontSize=12;verticalAlign=top;whiteSpace=wrap;labelBorderColor=none;labelBackgroundColor=none;glass=0;gradientColor=none;fillColor=default;" parent="1" vertex="1">
          <mxGeometry x="250" y="870" width="590" height="710" as="geometry" />
        </mxCell>
        <mxCell id="tt5gq2Tumd6P4Rt2efla-1" value="0" style="rounded=0;whiteSpace=wrap;html=1;fontSize=12;" parent="1" vertex="1">
          <mxGeometry x="130" y="117" width="40" height="90" as="geometry" />
        </mxCell>
        <mxCell id="tt5gq2Tumd6P4Rt2efla-2" value="1" style="rounded=0;whiteSpace=wrap;html=1;fontSize=12;" parent="1" vertex="1">
          <mxGeometry x="170" y="117" width="40" height="90" as="geometry" />
        </mxCell>
        <mxCell id="tt5gq2Tumd6P4Rt2efla-3" value="2" style="rounded=0;whiteSpace=wrap;html=1;fontSize=12;" parent="1" vertex="1">
          <mxGeometry x="210" y="117" width="40" height="90" as="geometry" />
        </mxCell>
        <mxCell id="tt5gq2Tumd6P4Rt2efla-4" value="3" style="rounded=0;whiteSpace=wrap;html=1;fontSize=12;" parent="1" vertex="1">
          <mxGeometry x="250" y="117" width="40" height="90" as="geometry" />
        </mxCell>
        <mxCell id="tt5gq2Tumd6P4Rt2efla-5" value="4" style="rounded=0;whiteSpace=wrap;html=1;fontSize=12;" parent="1" vertex="1">
          <mxGeometry x="290" y="117" width="40" height="90" as="geometry" />
        </mxCell>
        <mxCell id="tt5gq2Tumd6P4Rt2efla-6" value="5" style="rounded=0;whiteSpace=wrap;html=1;fontSize=12;" parent="1" vertex="1">
          <mxGeometry x="330" y="117" width="40" height="90" as="geometry" />
        </mxCell>
        <mxCell id="tt5gq2Tumd6P4Rt2efla-7" value="6" style="rounded=0;whiteSpace=wrap;html=1;fontSize=12;" parent="1" vertex="1">
          <mxGeometry x="370" y="117" width="40" height="90" as="geometry" />
        </mxCell>
        <mxCell id="tt5gq2Tumd6P4Rt2efla-8" value="7" style="rounded=0;whiteSpace=wrap;html=1;fontSize=12;" parent="1" vertex="1">
          <mxGeometry x="410" y="117" width="40" height="90" as="geometry" />
        </mxCell>
        <mxCell id="tt5gq2Tumd6P4Rt2efla-9" value="8" style="rounded=0;whiteSpace=wrap;html=1;fontSize=12;" parent="1" vertex="1">
          <mxGeometry x="450" y="117" width="40" height="90" as="geometry" />
        </mxCell>
        <mxCell id="tt5gq2Tumd6P4Rt2efla-10" value="9" style="rounded=0;whiteSpace=wrap;html=1;fontSize=12;" parent="1" vertex="1">
          <mxGeometry x="490" y="117" width="40" height="90" as="geometry" />
        </mxCell>
        <mxCell id="tt5gq2Tumd6P4Rt2efla-11" value="10" style="rounded=0;whiteSpace=wrap;html=1;fontSize=12;" parent="1" vertex="1">
          <mxGeometry x="530" y="117" width="40" height="90" as="geometry" />
        </mxCell>
        <mxCell id="tt5gq2Tumd6P4Rt2efla-12" value="11" style="rounded=0;whiteSpace=wrap;html=1;fontSize=12;" parent="1" vertex="1">
          <mxGeometry x="570" y="117" width="40" height="90" as="geometry" />
        </mxCell>
        <mxCell id="tt5gq2Tumd6P4Rt2efla-14" value="" style="edgeStyle=orthogonalEdgeStyle;rounded=0;orthogonalLoop=1;jettySize=auto;html=1;entryX=0.5;entryY=0;entryDx=0;entryDy=0;fontSize=12;" parent="1" source="tt5gq2Tumd6P4Rt2efla-13" target="tt5gq2Tumd6P4Rt2efla-1" edge="1">
          <mxGeometry relative="1" as="geometry">
            <Array as="points">
              <mxPoint x="150" y="107" />
              <mxPoint x="150" y="107" />
            </Array>
          </mxGeometry>
        </mxCell>
        <mxCell id="tt5gq2Tumd6P4Rt2efla-13" value="第一条&lt;br style=&quot;font-size: 12px;&quot;&gt;记录" style="text;html=1;align=center;verticalAlign=middle;resizable=0;points=[];autosize=1;strokeColor=none;fillColor=none;fontSize=12;" parent="1" vertex="1">
          <mxGeometry x="120" y="40" width="60" height="40" as="geometry" />
        </mxCell>
        <mxCell id="tt5gq2Tumd6P4Rt2efla-16" value="" style="edgeStyle=orthogonalEdgeStyle;rounded=0;orthogonalLoop=1;jettySize=auto;html=1;fontSize=12;" parent="1" source="tt5gq2Tumd6P4Rt2efla-15" edge="1">
          <mxGeometry relative="1" as="geometry">
            <mxPoint x="630" y="117" as="targetPoint" />
          </mxGeometry>
        </mxCell>
        <mxCell id="tt5gq2Tumd6P4Rt2efla-15" value="待写入&lt;br style=&quot;font-size: 12px;&quot;&gt;记录" style="text;html=1;align=center;verticalAlign=middle;resizable=0;points=[];autosize=1;strokeColor=none;fillColor=none;fontSize=12;" parent="1" vertex="1">
          <mxGeometry x="600" y="40" width="60" height="40" as="geometry" />
        </mxCell>
        <mxCell id="tt5gq2Tumd6P4Rt2efla-17" value="12" style="rounded=0;whiteSpace=wrap;html=1;dashed=1;fontSize=12;" parent="1" vertex="1">
          <mxGeometry x="610" y="117" width="40" height="90" as="geometry" />
        </mxCell>
        <mxCell id="tt5gq2Tumd6P4Rt2efla-18" value="0" style="rounded=0;whiteSpace=wrap;html=1;fontSize=12;" parent="1" vertex="1">
          <mxGeometry x="130" y="387" width="40" height="90" as="geometry" />
        </mxCell>
        <mxCell id="tt5gq2Tumd6P4Rt2efla-19" value="1" style="rounded=0;whiteSpace=wrap;html=1;fontSize=12;" parent="1" vertex="1">
          <mxGeometry x="170" y="387" width="40" height="90" as="geometry" />
        </mxCell>
        <mxCell id="tt5gq2Tumd6P4Rt2efla-20" value="2" style="rounded=0;whiteSpace=wrap;html=1;fontSize=12;" parent="1" vertex="1">
          <mxGeometry x="210" y="387" width="40" height="90" as="geometry" />
        </mxCell>
        <mxCell id="tt5gq2Tumd6P4Rt2efla-21" value="3" style="rounded=0;whiteSpace=wrap;html=1;fontSize=12;" parent="1" vertex="1">
          <mxGeometry x="250" y="387" width="40" height="90" as="geometry" />
        </mxCell>
        <mxCell id="tt5gq2Tumd6P4Rt2efla-22" value="4" style="rounded=0;whiteSpace=wrap;html=1;fontSize=12;" parent="1" vertex="1">
          <mxGeometry x="290" y="387" width="40" height="90" as="geometry" />
        </mxCell>
        <mxCell id="tt5gq2Tumd6P4Rt2efla-23" value="5" style="rounded=0;whiteSpace=wrap;html=1;fontSize=12;" parent="1" vertex="1">
          <mxGeometry x="330" y="387" width="40" height="90" as="geometry" />
        </mxCell>
        <mxCell id="tt5gq2Tumd6P4Rt2efla-24" value="6" style="rounded=0;whiteSpace=wrap;html=1;fontSize=12;" parent="1" vertex="1">
          <mxGeometry x="370" y="387" width="40" height="90" as="geometry" />
        </mxCell>
        <mxCell id="tt5gq2Tumd6P4Rt2efla-25" value="7" style="rounded=0;whiteSpace=wrap;html=1;fontSize=12;" parent="1" vertex="1">
          <mxGeometry x="410" y="387" width="40" height="90" as="geometry" />
        </mxCell>
        <mxCell id="tt5gq2Tumd6P4Rt2efla-26" value="8" style="rounded=0;whiteSpace=wrap;html=1;fontSize=12;" parent="1" vertex="1">
          <mxGeometry x="450" y="387" width="40" height="90" as="geometry" />
        </mxCell>
        <mxCell id="tt5gq2Tumd6P4Rt2efla-27" value="9" style="rounded=0;whiteSpace=wrap;html=1;fontSize=12;" parent="1" vertex="1">
          <mxGeometry x="490" y="387" width="40" height="90" as="geometry" />
        </mxCell>
        <mxCell id="tt5gq2Tumd6P4Rt2efla-28" value="10" style="rounded=0;whiteSpace=wrap;html=1;fontSize=12;" parent="1" vertex="1">
          <mxGeometry x="530" y="387" width="40" height="90" as="geometry" />
        </mxCell>
        <mxCell id="tt5gq2Tumd6P4Rt2efla-29" value="11" style="rounded=0;whiteSpace=wrap;html=1;fontSize=12;" parent="1" vertex="1">
          <mxGeometry x="570" y="387" width="40" height="90" as="geometry" />
        </mxCell>
        <mxCell id="tt5gq2Tumd6P4Rt2efla-34" value="12" style="rounded=0;whiteSpace=wrap;html=1;dashed=1;fontSize=12;" parent="1" vertex="1">
          <mxGeometry x="610" y="387" width="40" height="90" as="geometry" />
        </mxCell>
        <mxCell id="tt5gq2Tumd6P4Rt2efla-36" value="0" style="rounded=0;whiteSpace=wrap;html=1;fontSize=12;" parent="1" vertex="1">
          <mxGeometry x="130" y="507" width="40" height="90" as="geometry" />
        </mxCell>
        <mxCell id="tt5gq2Tumd6P4Rt2efla-37" value="1" style="rounded=0;whiteSpace=wrap;html=1;fontSize=12;" parent="1" vertex="1">
          <mxGeometry x="170" y="507" width="40" height="90" as="geometry" />
        </mxCell>
        <mxCell id="tt5gq2Tumd6P4Rt2efla-38" value="2" style="rounded=0;whiteSpace=wrap;html=1;fontSize=12;" parent="1" vertex="1">
          <mxGeometry x="210" y="507" width="40" height="90" as="geometry" />
        </mxCell>
        <mxCell id="tt5gq2Tumd6P4Rt2efla-39" value="3" style="rounded=0;whiteSpace=wrap;html=1;fontSize=12;" parent="1" vertex="1">
          <mxGeometry x="250" y="507" width="40" height="90" as="geometry" />
        </mxCell>
        <mxCell id="tt5gq2Tumd6P4Rt2efla-40" value="4" style="rounded=0;whiteSpace=wrap;html=1;fontSize=12;" parent="1" vertex="1">
          <mxGeometry x="290" y="507" width="40" height="90" as="geometry" />
        </mxCell>
        <mxCell id="tt5gq2Tumd6P4Rt2efla-41" value="5" style="rounded=0;whiteSpace=wrap;html=1;fontSize=12;" parent="1" vertex="1">
          <mxGeometry x="330" y="507" width="40" height="90" as="geometry" />
        </mxCell>
        <mxCell id="tt5gq2Tumd6P4Rt2efla-42" value="6" style="rounded=0;whiteSpace=wrap;html=1;fontSize=12;" parent="1" vertex="1">
          <mxGeometry x="370" y="507" width="40" height="90" as="geometry" />
        </mxCell>
        <mxCell id="tt5gq2Tumd6P4Rt2efla-43" value="7" style="rounded=0;whiteSpace=wrap;html=1;fontSize=12;" parent="1" vertex="1">
          <mxGeometry x="410" y="507" width="40" height="90" as="geometry" />
        </mxCell>
        <mxCell id="tt5gq2Tumd6P4Rt2efla-44" value="8" style="rounded=0;whiteSpace=wrap;html=1;fontSize=12;" parent="1" vertex="1">
          <mxGeometry x="450" y="507" width="40" height="90" as="geometry" />
        </mxCell>
        <mxCell id="tt5gq2Tumd6P4Rt2efla-45" value="9" style="rounded=0;whiteSpace=wrap;html=1;dashed=1;fontSize=12;" parent="1" vertex="1">
          <mxGeometry x="490" y="507" width="40" height="90" as="geometry" />
        </mxCell>
        <mxCell id="tt5gq2Tumd6P4Rt2efla-49" value="0" style="rounded=0;whiteSpace=wrap;html=1;fontSize=12;" parent="1" vertex="1">
          <mxGeometry x="130" y="627" width="40" height="90" as="geometry" />
        </mxCell>
        <mxCell id="tt5gq2Tumd6P4Rt2efla-50" value="1" style="rounded=0;whiteSpace=wrap;html=1;fontSize=12;" parent="1" vertex="1">
          <mxGeometry x="170" y="627" width="40" height="90" as="geometry" />
        </mxCell>
        <mxCell id="tt5gq2Tumd6P4Rt2efla-51" value="2" style="rounded=0;whiteSpace=wrap;html=1;fontSize=12;" parent="1" vertex="1">
          <mxGeometry x="210" y="627" width="40" height="90" as="geometry" />
        </mxCell>
        <mxCell id="tt5gq2Tumd6P4Rt2efla-52" value="3" style="rounded=0;whiteSpace=wrap;html=1;fontSize=12;" parent="1" vertex="1">
          <mxGeometry x="250" y="627" width="40" height="90" as="geometry" />
        </mxCell>
        <mxCell id="tt5gq2Tumd6P4Rt2efla-53" value="4" style="rounded=0;whiteSpace=wrap;html=1;fontSize=12;" parent="1" vertex="1">
          <mxGeometry x="290" y="627" width="40" height="90" as="geometry" />
        </mxCell>
        <mxCell id="tt5gq2Tumd6P4Rt2efla-54" value="5" style="rounded=0;whiteSpace=wrap;html=1;fontSize=12;" parent="1" vertex="1">
          <mxGeometry x="330" y="627" width="40" height="90" as="geometry" />
        </mxCell>
        <mxCell id="tt5gq2Tumd6P4Rt2efla-55" value="6" style="rounded=0;whiteSpace=wrap;html=1;fontSize=12;" parent="1" vertex="1">
          <mxGeometry x="370" y="627" width="40" height="90" as="geometry" />
        </mxCell>
        <mxCell id="tt5gq2Tumd6P4Rt2efla-56" value="7" style="rounded=0;whiteSpace=wrap;html=1;fontSize=12;" parent="1" vertex="1">
          <mxGeometry x="410" y="627" width="40" height="90" as="geometry" />
        </mxCell>
        <mxCell id="tt5gq2Tumd6P4Rt2efla-57" value="8" style="rounded=0;whiteSpace=wrap;html=1;fontSize=12;" parent="1" vertex="1">
          <mxGeometry x="450" y="627" width="40" height="90" as="geometry" />
        </mxCell>
        <mxCell id="tt5gq2Tumd6P4Rt2efla-58" value="9" style="rounded=0;whiteSpace=wrap;html=1;fontSize=12;" parent="1" vertex="1">
          <mxGeometry x="490" y="627" width="40" height="90" as="geometry" />
        </mxCell>
        <mxCell id="tt5gq2Tumd6P4Rt2efla-59" value="10" style="rounded=0;whiteSpace=wrap;html=1;fontSize=12;" parent="1" vertex="1">
          <mxGeometry x="530" y="627" width="40" height="90" as="geometry" />
        </mxCell>
        <mxCell id="tt5gq2Tumd6P4Rt2efla-60" value="11" style="rounded=0;whiteSpace=wrap;html=1;fontSize=12;" parent="1" vertex="1">
          <mxGeometry x="570" y="627" width="40" height="90" as="geometry" />
        </mxCell>
        <mxCell id="tt5gq2Tumd6P4Rt2efla-61" value="12" style="rounded=0;whiteSpace=wrap;html=1;dashed=1;fontSize=12;" parent="1" vertex="1">
          <mxGeometry x="610" y="627" width="40" height="90" as="geometry" />
        </mxCell>
        <mxCell id="tt5gq2Tumd6P4Rt2efla-62" value="partition 0" style="text;html=1;align=center;verticalAlign=middle;resizable=0;points=[];autosize=1;strokeColor=none;fillColor=none;fontSize=12;" parent="1" vertex="1">
          <mxGeometry x="40" y="417" width="80" height="30" as="geometry" />
        </mxCell>
        <mxCell id="tt5gq2Tumd6P4Rt2efla-63" value="partition 1" style="text;html=1;align=center;verticalAlign=middle;resizable=0;points=[];autosize=1;strokeColor=none;fillColor=none;fontSize=12;" parent="1" vertex="1">
          <mxGeometry x="40" y="537" width="80" height="30" as="geometry" />
        </mxCell>
        <mxCell id="tt5gq2Tumd6P4Rt2efla-64" value="partition 2" style="text;html=1;align=center;verticalAlign=middle;resizable=0;points=[];autosize=1;strokeColor=none;fillColor=none;fontSize=12;" parent="1" vertex="1">
          <mxGeometry x="40" y="657" width="80" height="30" as="geometry" />
        </mxCell>
        <mxCell id="tt5gq2Tumd6P4Rt2efla-66" style="rounded=0;orthogonalLoop=1;jettySize=auto;html=1;entryX=1;entryY=0.5;entryDx=0;entryDy=0;fontSize=12;" parent="1" source="tt5gq2Tumd6P4Rt2efla-65" target="tt5gq2Tumd6P4Rt2efla-34" edge="1">
          <mxGeometry relative="1" as="geometry" />
        </mxCell>
        <mxCell id="tt5gq2Tumd6P4Rt2efla-67" style="rounded=0;orthogonalLoop=1;jettySize=auto;html=1;entryX=1;entryY=0.5;entryDx=0;entryDy=0;fontSize=12;" parent="1" source="tt5gq2Tumd6P4Rt2efla-65" target="tt5gq2Tumd6P4Rt2efla-45" edge="1">
          <mxGeometry relative="1" as="geometry" />
        </mxCell>
        <mxCell id="tt5gq2Tumd6P4Rt2efla-68" style="rounded=0;orthogonalLoop=1;jettySize=auto;html=1;entryX=1;entryY=0.5;entryDx=0;entryDy=0;fontSize=12;" parent="1" source="tt5gq2Tumd6P4Rt2efla-65" target="tt5gq2Tumd6P4Rt2efla-61" edge="1">
          <mxGeometry relative="1" as="geometry" />
        </mxCell>
        <mxCell id="tt5gq2Tumd6P4Rt2efla-65" value="Writes" style="text;html=1;align=center;verticalAlign=middle;resizable=0;points=[];autosize=1;strokeColor=none;fillColor=none;fontSize=12;" parent="1" vertex="1">
          <mxGeometry x="750" y="537" width="60" height="30" as="geometry" />
        </mxCell>
        <mxCell id="3q75SMMaYMstoeI9ymJG-36" style="edgeStyle=orthogonalEdgeStyle;rounded=0;orthogonalLoop=1;jettySize=auto;html=1;" parent="1" source="tt5gq2Tumd6P4Rt2efla-74" target="tt5gq2Tumd6P4Rt2efla-69" edge="1">
          <mxGeometry relative="1" as="geometry" />
        </mxCell>
        <mxCell id="3q75SMMaYMstoeI9ymJG-38" value="message&lt;br&gt;to&lt;br&gt;leader" style="edgeLabel;html=1;align=center;verticalAlign=middle;resizable=0;points=[];" parent="3q75SMMaYMstoeI9ymJG-36" vertex="1" connectable="0">
          <mxGeometry x="-0.2162" y="-4" relative="1" as="geometry">
            <mxPoint as="offset" />
          </mxGeometry>
        </mxCell>
        <mxCell id="tt5gq2Tumd6P4Rt2efla-74" value="&lt;span style=&quot;box-sizing: border-box; --tw-border-spacing-x: 0; --tw-border-spacing-y: 0; --tw-translate-x: 0; --tw-translate-y: 0; --tw-rotate: 0; --tw-skew-x: 0; --tw-skew-y: 0; --tw-scale-x: 1; --tw-scale-y: 1; --tw-pan-x: ; --tw-pan-y: ; --tw-pinch-zoom: ; --tw-scroll-snap-strictness: proximity; --tw-ordinal: ; --tw-slashed-zero: ; --tw-numeric-figure: ; --tw-numeric-spacing: ; --tw-numeric-fraction: ; --tw-ring-inset: ; --tw-ring-offset-width: 0px; --tw-ring-offset-color: #fff; --tw-ring-color: rgb(59 130 246 / 0.5); --tw-ring-offset-shadow: 0 0 #0000; --tw-ring-shadow: 0 0 #0000; --tw-shadow: 0 0 #0000; --tw-shadow-colored: 0 0 #0000; --tw-blur: ; --tw-brightness: ; --tw-contrast: ; --tw-grayscale: ; --tw-hue-rotate: ; --tw-invert: ; --tw-saturate: ; --tw-sepia: ; --tw-drop-shadow: ; --tw-backdrop-blur: ; --tw-backdrop-brightness: ; --tw-backdrop-contrast: ; --tw-backdrop-grayscale: ; --tw-backdrop-hue-rotate: ; --tw-backdrop-invert: ; --tw-backdrop-opacity: ; --tw-backdrop-saturate: ; --tw-backdrop-sepia: ; color: rgb(51, 51, 51); font-family: &amp;quot;Open Sans&amp;quot;, &amp;quot;Clear Sans&amp;quot;, &amp;quot;Helvetica Neue&amp;quot;, Helvetica, Arial, &amp;quot;Segoe UI Emoji&amp;quot;, sans-serif; font-size: 12px; orphans: 4; text-align: left; background-color: rgb(255, 255, 255);&quot;&gt;Producer&lt;/span&gt;" style="rounded=0;whiteSpace=wrap;html=1;fontSize=12;" parent="1" vertex="1">
          <mxGeometry x="20" y="1195" width="120" height="60" as="geometry" />
        </mxCell>
        <mxCell id="tt5gq2Tumd6P4Rt2efla-75" value="&lt;span style=&quot;box-sizing: border-box; --tw-border-spacing-x: 0; --tw-border-spacing-y: 0; --tw-translate-x: 0; --tw-translate-y: 0; --tw-rotate: 0; --tw-skew-x: 0; --tw-skew-y: 0; --tw-scale-x: 1; --tw-scale-y: 1; --tw-pan-x: ; --tw-pan-y: ; --tw-pinch-zoom: ; --tw-scroll-snap-strictness: proximity; --tw-ordinal: ; --tw-slashed-zero: ; --tw-numeric-figure: ; --tw-numeric-spacing: ; --tw-numeric-fraction: ; --tw-ring-inset: ; --tw-ring-offset-width: 0px; --tw-ring-offset-color: #fff; --tw-ring-color: rgb(59 130 246 / 0.5); --tw-ring-offset-shadow: 0 0 #0000; --tw-ring-shadow: 0 0 #0000; --tw-shadow: 0 0 #0000; --tw-shadow-colored: 0 0 #0000; --tw-blur: ; --tw-brightness: ; --tw-contrast: ; --tw-grayscale: ; --tw-hue-rotate: ; --tw-invert: ; --tw-saturate: ; --tw-sepia: ; --tw-drop-shadow: ; --tw-backdrop-blur: ; --tw-backdrop-brightness: ; --tw-backdrop-contrast: ; --tw-backdrop-grayscale: ; --tw-backdrop-hue-rotate: ; --tw-backdrop-invert: ; --tw-backdrop-opacity: ; --tw-backdrop-saturate: ; --tw-backdrop-sepia: ; color: rgb(51, 51, 51); font-family: &amp;quot;Open Sans&amp;quot;, &amp;quot;Clear Sans&amp;quot;, &amp;quot;Helvetica Neue&amp;quot;, Helvetica, Arial, &amp;quot;Segoe UI Emoji&amp;quot;, sans-serif; font-size: 12px; orphans: 4; text-align: left; background-color: rgb(255, 255, 255);&quot;&gt;Consumer&lt;/span&gt;" style="rounded=0;whiteSpace=wrap;html=1;fontSize=12;" parent="1" vertex="1">
          <mxGeometry x="980" y="1195" width="120" height="60" as="geometry" />
        </mxCell>
        <mxCell id="3q75SMMaYMstoeI9ymJG-17" value="" style="group;fillColor=#dae8fc;strokeColor=#6c8ebf;" parent="1" vertex="1" connectable="0">
          <mxGeometry x="280" y="930" width="530" height="180" as="geometry" />
        </mxCell>
        <mxCell id="3q75SMMaYMstoeI9ymJG-16" value="&lt;div style=&quot;orphans: 4; font-size: 12px;&quot;&gt;&lt;font style=&quot;font-size: 12px;&quot; color=&quot;#333333&quot; face=&quot;Open Sans, Clear Sans, Helvetica Neue, Helvetica, Arial, Segoe UI Emoji, sans-serif&quot;&gt;&lt;span style=&quot;font-size: 12px; background-color: rgb(255, 255, 255);&quot;&gt;Broker1&lt;/span&gt;&lt;/font&gt;&lt;/div&gt;" style="rounded=0;whiteSpace=wrap;html=1;verticalAlign=top;align=left;fontSize=12;" parent="3q75SMMaYMstoeI9ymJG-17" vertex="1">
          <mxGeometry width="530" height="180" as="geometry" />
        </mxCell>
        <mxCell id="tt5gq2Tumd6P4Rt2efla-70" value="&lt;span style=&quot;color: rgb(0, 0, 0); font-family: Helvetica; font-size: 12px; font-style: normal; font-variant-ligatures: normal; font-variant-caps: normal; font-weight: 400; letter-spacing: normal; orphans: 2; text-align: center; text-indent: 0px; text-transform: none; widows: 2; word-spacing: 0px; -webkit-text-stroke-width: 0px; background-color: rgb(251, 251, 251); text-decoration-thickness: initial; text-decoration-style: initial; text-decoration-color: initial; float: none; display: inline !important;&quot;&gt;Topic A&lt;/span&gt;" style="rounded=0;whiteSpace=wrap;html=1;verticalAlign=top;align=left;fontSize=12;fillColor=#f5f5f5;fontColor=#333333;strokeColor=#666666;" parent="3q75SMMaYMstoeI9ymJG-17" vertex="1">
          <mxGeometry x="30" y="30" width="490" height="140" as="geometry" />
        </mxCell>
        <mxCell id="tt5gq2Tumd6P4Rt2efla-71" value="partition 0&lt;br&gt;Leader" style="rounded=0;whiteSpace=wrap;html=1;fontSize=12;fillColor=#dae8fc;strokeColor=#6c8ebf;" parent="3q75SMMaYMstoeI9ymJG-17" vertex="1">
          <mxGeometry x="60" y="70" width="120" height="60" as="geometry" />
        </mxCell>
        <mxCell id="tt5gq2Tumd6P4Rt2efla-72" value="partition 1" style="rounded=0;whiteSpace=wrap;html=1;fontSize=12;fillColor=#d5e8d4;strokeColor=#82b366;" parent="3q75SMMaYMstoeI9ymJG-17" vertex="1">
          <mxGeometry x="215" y="70" width="120" height="60" as="geometry" />
        </mxCell>
        <mxCell id="tt5gq2Tumd6P4Rt2efla-73" value="partition 2" style="rounded=0;whiteSpace=wrap;html=1;fontSize=12;fillColor=#ffe6cc;strokeColor=#d79b00;" parent="3q75SMMaYMstoeI9ymJG-17" vertex="1">
          <mxGeometry x="370" y="70" width="120" height="60" as="geometry" />
        </mxCell>
        <mxCell id="3q75SMMaYMstoeI9ymJG-18" value="" style="group;fillColor=#dae8fc;strokeColor=#6c8ebf;" parent="1" vertex="1" connectable="0">
          <mxGeometry x="280" y="1150" width="530" height="180" as="geometry" />
        </mxCell>
        <mxCell id="3q75SMMaYMstoeI9ymJG-19" value="&lt;div style=&quot;orphans: 4; font-size: 12px;&quot;&gt;&lt;font style=&quot;font-size: 12px;&quot; color=&quot;#333333&quot; face=&quot;Open Sans, Clear Sans, Helvetica Neue, Helvetica, Arial, Segoe UI Emoji, sans-serif&quot;&gt;&lt;span style=&quot;font-size: 12px; background-color: rgb(255, 255, 255);&quot;&gt;Broker2&lt;/span&gt;&lt;/font&gt;&lt;/div&gt;" style="rounded=0;whiteSpace=wrap;html=1;verticalAlign=top;align=left;fontSize=12;" parent="3q75SMMaYMstoeI9ymJG-18" vertex="1">
          <mxGeometry width="530" height="180" as="geometry" />
        </mxCell>
        <mxCell id="3q75SMMaYMstoeI9ymJG-20" value="&lt;span style=&quot;color: rgb(0, 0, 0); font-family: Helvetica; font-size: 12px; font-style: normal; font-variant-ligatures: normal; font-variant-caps: normal; font-weight: 400; letter-spacing: normal; orphans: 2; text-align: center; text-indent: 0px; text-transform: none; widows: 2; word-spacing: 0px; -webkit-text-stroke-width: 0px; background-color: rgb(251, 251, 251); text-decoration-thickness: initial; text-decoration-style: initial; text-decoration-color: initial; float: none; display: inline !important;&quot;&gt;Topic B&lt;/span&gt;" style="rounded=0;whiteSpace=wrap;html=1;verticalAlign=top;align=left;fontSize=12;fillColor=#f5f5f5;fontColor=#333333;strokeColor=#666666;" parent="3q75SMMaYMstoeI9ymJG-18" vertex="1">
          <mxGeometry x="30" y="30" width="490" height="140" as="geometry" />
        </mxCell>
        <mxCell id="3q75SMMaYMstoeI9ymJG-21" value="partition 0" style="rounded=0;whiteSpace=wrap;html=1;fontSize=12;fillColor=#dae8fc;strokeColor=#6c8ebf;" parent="3q75SMMaYMstoeI9ymJG-18" vertex="1">
          <mxGeometry x="60" y="70" width="120" height="60" as="geometry" />
        </mxCell>
        <mxCell id="3q75SMMaYMstoeI9ymJG-22" value="partition 1&lt;br&gt;Leader" style="rounded=0;whiteSpace=wrap;html=1;fontSize=12;fillColor=#d5e8d4;strokeColor=#82b366;" parent="3q75SMMaYMstoeI9ymJG-18" vertex="1">
          <mxGeometry x="215" y="70" width="120" height="60" as="geometry" />
        </mxCell>
        <mxCell id="3q75SMMaYMstoeI9ymJG-23" value="partition 2" style="rounded=0;whiteSpace=wrap;html=1;fontSize=12;fillColor=#ffe6cc;strokeColor=#d79b00;" parent="3q75SMMaYMstoeI9ymJG-18" vertex="1">
          <mxGeometry x="370" y="70" width="120" height="60" as="geometry" />
        </mxCell>
        <mxCell id="3q75SMMaYMstoeI9ymJG-24" value="" style="group;fillColor=#dae8fc;strokeColor=#6c8ebf;" parent="1" vertex="1" connectable="0">
          <mxGeometry x="280" y="1370" width="530" height="180" as="geometry" />
        </mxCell>
        <mxCell id="3q75SMMaYMstoeI9ymJG-25" value="&lt;div style=&quot;orphans: 4; font-size: 12px;&quot;&gt;&lt;font style=&quot;font-size: 12px;&quot; color=&quot;#333333&quot; face=&quot;Open Sans, Clear Sans, Helvetica Neue, Helvetica, Arial, Segoe UI Emoji, sans-serif&quot;&gt;&lt;span style=&quot;font-size: 12px; background-color: rgb(255, 255, 255);&quot;&gt;Broker3&lt;/span&gt;&lt;/font&gt;&lt;/div&gt;" style="rounded=0;whiteSpace=wrap;html=1;verticalAlign=top;align=left;fontSize=12;" parent="3q75SMMaYMstoeI9ymJG-24" vertex="1">
          <mxGeometry width="530" height="180" as="geometry" />
        </mxCell>
        <mxCell id="3q75SMMaYMstoeI9ymJG-26" value="&lt;span style=&quot;color: rgb(0, 0, 0); font-family: Helvetica; font-size: 12px; font-style: normal; font-variant-ligatures: normal; font-variant-caps: normal; font-weight: 400; letter-spacing: normal; orphans: 2; text-align: center; text-indent: 0px; text-transform: none; widows: 2; word-spacing: 0px; -webkit-text-stroke-width: 0px; background-color: rgb(251, 251, 251); text-decoration-thickness: initial; text-decoration-style: initial; text-decoration-color: initial; float: none; display: inline !important;&quot;&gt;Topic C&lt;/span&gt;" style="rounded=0;whiteSpace=wrap;html=1;verticalAlign=top;align=left;fontSize=12;fillColor=#f5f5f5;fontColor=#333333;strokeColor=#666666;" parent="3q75SMMaYMstoeI9ymJG-24" vertex="1">
          <mxGeometry x="30" y="30" width="490" height="140" as="geometry" />
        </mxCell>
        <mxCell id="3q75SMMaYMstoeI9ymJG-27" value="partition 0" style="rounded=0;whiteSpace=wrap;html=1;fontSize=12;fillColor=#dae8fc;strokeColor=#6c8ebf;" parent="3q75SMMaYMstoeI9ymJG-24" vertex="1">
          <mxGeometry x="60" y="70" width="120" height="60" as="geometry" />
        </mxCell>
        <mxCell id="3q75SMMaYMstoeI9ymJG-28" value="partition 1" style="rounded=0;whiteSpace=wrap;html=1;fontSize=12;fillColor=#d5e8d4;strokeColor=#82b366;" parent="3q75SMMaYMstoeI9ymJG-24" vertex="1">
          <mxGeometry x="215" y="70" width="120" height="60" as="geometry" />
        </mxCell>
        <mxCell id="3q75SMMaYMstoeI9ymJG-29" value="partition 2&lt;br&gt;Leader" style="rounded=0;whiteSpace=wrap;html=1;fontSize=12;fillColor=#ffe6cc;strokeColor=#d79b00;" parent="3q75SMMaYMstoeI9ymJG-24" vertex="1">
          <mxGeometry x="370" y="70" width="120" height="60" as="geometry" />
        </mxCell>
        <mxCell id="3q75SMMaYMstoeI9ymJG-40" style="edgeStyle=orthogonalEdgeStyle;rounded=0;orthogonalLoop=1;jettySize=auto;html=1;dashed=1;" parent="1" source="tt5gq2Tumd6P4Rt2efla-71" target="3q75SMMaYMstoeI9ymJG-21" edge="1">
          <mxGeometry relative="1" as="geometry" />
        </mxCell>
        <mxCell id="3q75SMMaYMstoeI9ymJG-42" style="edgeStyle=orthogonalEdgeStyle;rounded=0;orthogonalLoop=1;jettySize=auto;html=1;exitX=1;exitY=0.5;exitDx=0;exitDy=0;entryX=1;entryY=0.5;entryDx=0;entryDy=0;dashed=1;" parent="1" source="tt5gq2Tumd6P4Rt2efla-71" target="3q75SMMaYMstoeI9ymJG-27" edge="1">
          <mxGeometry relative="1" as="geometry" />
        </mxCell>
        <mxCell id="3q75SMMaYMstoeI9ymJG-43" style="edgeStyle=orthogonalEdgeStyle;rounded=0;orthogonalLoop=1;jettySize=auto;html=1;dashed=1;" parent="1" source="3q75SMMaYMstoeI9ymJG-22" target="tt5gq2Tumd6P4Rt2efla-72" edge="1">
          <mxGeometry relative="1" as="geometry" />
        </mxCell>
        <mxCell id="3q75SMMaYMstoeI9ymJG-44" style="edgeStyle=orthogonalEdgeStyle;rounded=0;orthogonalLoop=1;jettySize=auto;html=1;dashed=1;" parent="1" source="3q75SMMaYMstoeI9ymJG-22" target="3q75SMMaYMstoeI9ymJG-28" edge="1">
          <mxGeometry relative="1" as="geometry" />
        </mxCell>
        <mxCell id="3q75SMMaYMstoeI9ymJG-45" style="edgeStyle=orthogonalEdgeStyle;rounded=0;orthogonalLoop=1;jettySize=auto;html=1;dashed=1;" parent="1" source="3q75SMMaYMstoeI9ymJG-29" target="3q75SMMaYMstoeI9ymJG-23" edge="1">
          <mxGeometry relative="1" as="geometry" />
        </mxCell>
        <mxCell id="3q75SMMaYMstoeI9ymJG-46" style="edgeStyle=orthogonalEdgeStyle;rounded=0;orthogonalLoop=1;jettySize=auto;html=1;entryX=1;entryY=0.5;entryDx=0;entryDy=0;exitX=1;exitY=0.5;exitDx=0;exitDy=0;dashed=1;" parent="1" source="3q75SMMaYMstoeI9ymJG-29" target="tt5gq2Tumd6P4Rt2efla-73" edge="1">
          <mxGeometry relative="1" as="geometry" />
        </mxCell>
      </root>
    </mxGraphModel>
  </diagram>
</mxfile>
